<svg width="449" height="437" viewBox="0 0 449 437" fill="none" xmlns="http://www.w3.org/2000/svg">
<mask id="path-1-outside-1_10_3" maskUnits="userSpaceOnUse" x="0" y="0" width="449" height="437" fill="black">
<rect fill="white" width="449" height="437"/>
<path fill-rule="evenodd" clip-rule="evenodd" d="M100.251 22.75C98.8185 27.644 98.7335 29.65 99.6825 36.225C100.295 40.473 102.022 46.548 103.521 49.725C107.268 57.668 116.051 66.24 124.577 70.276C130.862 73.25 132.161 73.495 141.645 73.497C150.289 73.5 151.632 73.705 150.145 74.794C146.124 77.74 137.718 79.282 129.929 78.503C117.83 77.292 116.881 77.448 106.412 82.375C74.5093 97.391 48.5815 122.71 32.6995 154.359C22.0814 175.518 16.2165 199.987 17.0845 219.508C17.7445 234.333 18.6804 234.979 23.2555 223.765C26.9645 214.673 35.6994 200.283 39.7155 196.648C41.3155 195.2 40.7895 197.174 37.2515 205.881C23.2654 240.313 21.2674 276.629 31.5565 309.426C34.4305 318.587 41.0424 332.457 45.9645 339.649C49.6155 344.984 58.7275 355 59.9295 355C60.3475 355 59.9655 352.413 59.0795 349.25C57.9775 345.315 57.4555 339.239 57.4245 330C57.3685 313.254 58.4934 309.487 60.5595 319.5C64.2345 337.31 73.0094 357.855 82.9815 372C100.161 396.366 128.573 413.093 161.879 418.447C166.554 419.198 170.513 419.684 170.676 419.526C170.839 419.368 168.814 417.645 166.176 415.697C159.82 411.002 154.822 405.7 150.458 399.023C145.87 392.002 145.813 389.857 150.32 393.814C158.811 401.27 176.377 409.214 193.579 413.38C209.271 417.179 221.124 418.323 238.683 417.733C255.707 417.161 265.168 415.287 275.347 410.472C280.886 407.852 286.879 403.494 286.879 402.088C286.879 401.684 284.24 400.862 281.014 400.262C254.554 395.342 232.23 375.193 222.799 347.722C213.371 320.258 219.735 290.656 239.753 268.863L245.849 262.226L232.114 261.74C216.48 261.186 210.168 259.752 198.12 254.016C168.596 239.959 149.2 213.2 147.368 184L146.898 176.5L148.286 183C155.588 217.181 176.1 240.145 208.379 250.276C229.577 256.928 248.696 256.211 272.879 247.855C281.829 244.763 283.191 244.571 296.379 244.543C306.73 244.522 312.073 244.976 316.879 246.284C325.966 248.758 337.032 254.183 344.921 260.031C355.828 268.117 359.72 269.505 371.379 269.469C380.243 269.441 382.031 269.121 387.117 266.652C394.722 262.959 401.518 255.984 405.285 248.003C407.996 242.258 408.355 240.451 408.366 232.5C408.378 224.19 408.099 222.913 404.721 215.839C402.709 211.626 400.487 205.609 399.784 202.468C398.369 196.145 392.054 182.842 390.186 182.25C389.466 182.021 388.759 183.382 388.401 185.686C388.074 187.784 387.148 193.1 386.342 197.5C384.332 208.477 384.388 208.883 388.129 210.509L391.379 211.922L387.7 211.961L384.021 212L382.903 206.25C381.077 196.859 378.886 190.837 375.662 186.347C373.015 182.662 370.168 180.359 369.328 181.226C369.182 181.377 368.336 185.775 367.448 191C365.601 201.865 362.191 213 360.711 213C360.159 213 353.682 211.442 346.318 209.538C338.954 207.634 327.856 205.343 321.654 204.447C296.79 200.854 289.636 198.221 286.441 191.489C283.945 186.229 285.039 185.133 288.128 189.8C291.434 194.795 300.957 199.769 308.888 200.641L314.379 201.245L308.879 197.109C299.542 190.086 297.229 182.981 299.989 169.799C302.437 158.108 312.455 144.248 324.503 135.885C329.326 132.537 329.348 132.496 326.552 132.176C318.666 131.273 302.254 139.442 294.129 148.314C289.192 153.706 288.703 153.231 292.722 146.946C304.682 128.243 325.904 121.846 359.379 126.854L370.379 128.5L370.456 142.942C370.51 153.131 370.882 157.501 371.719 157.78C373.761 158.461 381.454 153.266 386.169 148.022C388.656 145.256 391.716 140.52 392.969 137.497C394.776 133.137 395.713 132 397.498 132C399.722 132 399.745 132.141 399.477 144C399.328 150.6 399.38 156 399.592 156C400.995 156 405.884 152.643 408.568 149.835C411.669 146.593 416.85 136.829 416.869 134.191C416.875 133.472 418.201 131.222 419.817 129.191C424.252 123.618 427.434 116.47 429.886 106.57C432.298 96.835 432.175 90.627 429.489 86.527C428.587 85.151 424.509 81.511 420.426 78.438C413.224 73.017 407.107 66.439 408.227 65.319C408.53 65.016 413.786 67.56 419.908 70.971C426.03 74.383 431.281 76.931 431.579 76.634C431.876 76.336 431.825 74.519 431.464 72.594C429.797 63.717 405.263 48.768 380.379 41.468C373.669 39.5 367.69 38.612 356.879 37.976C339.624 36.963 338.389 36.706 314.069 29.085C288.765 21.156 285.525 20.593 269.052 21.275C257.605 21.749 253.101 22.447 241.379 25.562C212.504 33.235 212.192 33.282 189.379 33.366C169.439 33.439 167.618 33.282 153.28 30.255C144.975 28.502 130.67 24.802 121.49 22.034C112.31 19.265 104.155 17 103.367 17C102.485 17 101.288 19.21 100.251 22.75ZM269.879 38C268.706 38.758 268.965 38.973 271.07 38.985C274.154 39.002 275.517 40.526 274.04 42.306C272.983 43.58 272.46 46.934 272.723 50.75C272.859 52.708 273.434 53 277.151 53C279.5 53 284.446 53.838 288.142 54.863C295.588 56.928 296.406 56.615 297.47 51.296C298.036 48.464 292.434 46.569 286 42.306C276.904 36.279 273.788 35.474 269.879 38ZM301.379 55L298.505 58L302.442 57.978C304.607 57.966 308.404 57.004 310.879 55.84C315.201 53.807 315.28 53.693 312.879 52.961C307.543 51.335 304.347 51.902 301.379 55Z"/>
</mask>
<path fill-rule="evenodd" clip-rule="evenodd" d="M100.251 22.75C98.8185 27.644 98.7335 29.65 99.6825 36.225C100.295 40.473 102.022 46.548 103.521 49.725C107.268 57.668 116.051 66.24 124.577 70.276C130.862 73.25 132.161 73.495 141.645 73.497C150.289 73.5 151.632 73.705 150.145 74.794C146.124 77.74 137.718 79.282 129.929 78.503C117.83 77.292 116.881 77.448 106.412 82.375C74.5093 97.391 48.5815 122.71 32.6995 154.359C22.0814 175.518 16.2165 199.987 17.0845 219.508C17.7445 234.333 18.6804 234.979 23.2555 223.765C26.9645 214.673 35.6994 200.283 39.7155 196.648C41.3155 195.2 40.7895 197.174 37.2515 205.881C23.2654 240.313 21.2674 276.629 31.5565 309.426C34.4305 318.587 41.0424 332.457 45.9645 339.649C49.6155 344.984 58.7275 355 59.9295 355C60.3475 355 59.9655 352.413 59.0795 349.25C57.9775 345.315 57.4555 339.239 57.4245 330C57.3685 313.254 58.4934 309.487 60.5595 319.5C64.2345 337.31 73.0094 357.855 82.9815 372C100.161 396.366 128.573 413.093 161.879 418.447C166.554 419.198 170.513 419.684 170.676 419.526C170.839 419.368 168.814 417.645 166.176 415.697C159.82 411.002 154.822 405.7 150.458 399.023C145.87 392.002 145.813 389.857 150.32 393.814C158.811 401.27 176.377 409.214 193.579 413.38C209.271 417.179 221.124 418.323 238.683 417.733C255.707 417.161 265.168 415.287 275.347 410.472C280.886 407.852 286.879 403.494 286.879 402.088C286.879 401.684 284.24 400.862 281.014 400.262C254.554 395.342 232.23 375.193 222.799 347.722C213.371 320.258 219.735 290.656 239.753 268.863L245.849 262.226L232.114 261.74C216.48 261.186 210.168 259.752 198.12 254.016C168.596 239.959 149.2 213.2 147.368 184L146.898 176.5L148.286 183C155.588 217.181 176.1 240.145 208.379 250.276C229.577 256.928 248.696 256.211 272.879 247.855C281.829 244.763 283.191 244.571 296.379 244.543C306.73 244.522 312.073 244.976 316.879 246.284C325.966 248.758 337.032 254.183 344.921 260.031C355.828 268.117 359.72 269.505 371.379 269.469C380.243 269.441 382.031 269.121 387.117 266.652C394.722 262.959 401.518 255.984 405.285 248.003C407.996 242.258 408.355 240.451 408.366 232.5C408.378 224.19 408.099 222.913 404.721 215.839C402.709 211.626 400.487 205.609 399.784 202.468C398.369 196.145 392.054 182.842 390.186 182.25C389.466 182.021 388.759 183.382 388.401 185.686C388.074 187.784 387.148 193.1 386.342 197.5C384.332 208.477 384.388 208.883 388.129 210.509L391.379 211.922L387.7 211.961L384.021 212L382.903 206.25C381.077 196.859 378.886 190.837 375.662 186.347C373.015 182.662 370.168 180.359 369.328 181.226C369.182 181.377 368.336 185.775 367.448 191C365.601 201.865 362.191 213 360.711 213C360.159 213 353.682 211.442 346.318 209.538C338.954 207.634 327.856 205.343 321.654 204.447C296.79 200.854 289.636 198.221 286.441 191.489C283.945 186.229 285.039 185.133 288.128 189.8C291.434 194.795 300.957 199.769 308.888 200.641L314.379 201.245L308.879 197.109C299.542 190.086 297.229 182.981 299.989 169.799C302.437 158.108 312.455 144.248 324.503 135.885C329.326 132.537 329.348 132.496 326.552 132.176C318.666 131.273 302.254 139.442 294.129 148.314C289.192 153.706 288.703 153.231 292.722 146.946C304.682 128.243 325.904 121.846 359.379 126.854L370.379 128.5L370.456 142.942C370.51 153.131 370.882 157.501 371.719 157.78C373.761 158.461 381.454 153.266 386.169 148.022C388.656 145.256 391.716 140.52 392.969 137.497C394.776 133.137 395.713 132 397.498 132C399.722 132 399.745 132.141 399.477 144C399.328 150.6 399.38 156 399.592 156C400.995 156 405.884 152.643 408.568 149.835C411.669 146.593 416.85 136.829 416.869 134.191C416.875 133.472 418.201 131.222 419.817 129.191C424.252 123.618 427.434 116.47 429.886 106.57C432.298 96.835 432.175 90.627 429.489 86.527C428.587 85.151 424.509 81.511 420.426 78.438C413.224 73.017 407.107 66.439 408.227 65.319C408.53 65.016 413.786 67.56 419.908 70.971C426.03 74.383 431.281 76.931 431.579 76.634C431.876 76.336 431.825 74.519 431.464 72.594C429.797 63.717 405.263 48.768 380.379 41.468C373.669 39.5 367.69 38.612 356.879 37.976C339.624 36.963 338.389 36.706 314.069 29.085C288.765 21.156 285.525 20.593 269.052 21.275C257.605 21.749 253.101 22.447 241.379 25.562C212.504 33.235 212.192 33.282 189.379 33.366C169.439 33.439 167.618 33.282 153.28 30.255C144.975 28.502 130.67 24.802 121.49 22.034C112.31 19.265 104.155 17 103.367 17C102.485 17 101.288 19.21 100.251 22.75ZM269.879 38C268.706 38.758 268.965 38.973 271.07 38.985C274.154 39.002 275.517 40.526 274.04 42.306C272.983 43.58 272.46 46.934 272.723 50.75C272.859 52.708 273.434 53 277.151 53C279.5 53 284.446 53.838 288.142 54.863C295.588 56.928 296.406 56.615 297.47 51.296C298.036 48.464 292.434 46.569 286 42.306C276.904 36.279 273.788 35.474 269.879 38ZM301.379 55L298.505 58L302.442 57.978C304.607 57.966 308.404 57.004 310.879 55.84C315.201 53.807 315.28 53.693 312.879 52.961C307.543 51.335 304.347 51.902 301.379 55Z" fill="black"/>
<path fill-rule="evenodd" clip-rule="evenodd" d="M100.251 22.75C98.8185 27.644 98.7335 29.65 99.6825 36.225C100.295 40.473 102.022 46.548 103.521 49.725C107.268 57.668 116.051 66.24 124.577 70.276C130.862 73.25 132.161 73.495 141.645 73.497C150.289 73.5 151.632 73.705 150.145 74.794C146.124 77.74 137.718 79.282 129.929 78.503C117.83 77.292 116.881 77.448 106.412 82.375C74.5093 97.391 48.5815 122.71 32.6995 154.359C22.0814 175.518 16.2165 199.987 17.0845 219.508C17.7445 234.333 18.6804 234.979 23.2555 223.765C26.9645 214.673 35.6994 200.283 39.7155 196.648C41.3155 195.2 40.7895 197.174 37.2515 205.881C23.2654 240.313 21.2674 276.629 31.5565 309.426C34.4305 318.587 41.0424 332.457 45.9645 339.649C49.6155 344.984 58.7275 355 59.9295 355C60.3475 355 59.9655 352.413 59.0795 349.25C57.9775 345.315 57.4555 339.239 57.4245 330C57.3685 313.254 58.4934 309.487 60.5595 319.5C64.2345 337.31 73.0094 357.855 82.9815 372C100.161 396.366 128.573 413.093 161.879 418.447C166.554 419.198 170.513 419.684 170.676 419.526C170.839 419.368 168.814 417.645 166.176 415.697C159.82 411.002 154.822 405.7 150.458 399.023C145.87 392.002 145.813 389.857 150.32 393.814C158.811 401.27 176.377 409.214 193.579 413.38C209.271 417.179 221.124 418.323 238.683 417.733C255.707 417.161 265.168 415.287 275.347 410.472C280.886 407.852 286.879 403.494 286.879 402.088C286.879 401.684 284.24 400.862 281.014 400.262C254.554 395.342 232.23 375.193 222.799 347.722C213.371 320.258 219.735 290.656 239.753 268.863L245.849 262.226L232.114 261.74C216.48 261.186 210.168 259.752 198.12 254.016C168.596 239.959 149.2 213.2 147.368 184L146.898 176.5L148.286 183C155.588 217.181 176.1 240.145 208.379 250.276C229.577 256.928 248.696 256.211 272.879 247.855C281.829 244.763 283.191 244.571 296.379 244.543C306.73 244.522 312.073 244.976 316.879 246.284C325.966 248.758 337.032 254.183 344.921 260.031C355.828 268.117 359.72 269.505 371.379 269.469C380.243 269.441 382.031 269.121 387.117 266.652C394.722 262.959 401.518 255.984 405.285 248.003C407.996 242.258 408.355 240.451 408.366 232.5C408.378 224.19 408.099 222.913 404.721 215.839C402.709 211.626 400.487 205.609 399.784 202.468C398.369 196.145 392.054 182.842 390.186 182.25C389.466 182.021 388.759 183.382 388.401 185.686C388.074 187.784 387.148 193.1 386.342 197.5C384.332 208.477 384.388 208.883 388.129 210.509L391.379 211.922L387.7 211.961L384.021 212L382.903 206.25C381.077 196.859 378.886 190.837 375.662 186.347C373.015 182.662 370.168 180.359 369.328 181.226C369.182 181.377 368.336 185.775 367.448 191C365.601 201.865 362.191 213 360.711 213C360.159 213 353.682 211.442 346.318 209.538C338.954 207.634 327.856 205.343 321.654 204.447C296.79 200.854 289.636 198.221 286.441 191.489C283.945 186.229 285.039 185.133 288.128 189.8C291.434 194.795 300.957 199.769 308.888 200.641L314.379 201.245L308.879 197.109C299.542 190.086 297.229 182.981 299.989 169.799C302.437 158.108 312.455 144.248 324.503 135.885C329.326 132.537 329.348 132.496 326.552 132.176C318.666 131.273 302.254 139.442 294.129 148.314C289.192 153.706 288.703 153.231 292.722 146.946C304.682 128.243 325.904 121.846 359.379 126.854L370.379 128.5L370.456 142.942C370.51 153.131 370.882 157.501 371.719 157.78C373.761 158.461 381.454 153.266 386.169 148.022C388.656 145.256 391.716 140.52 392.969 137.497C394.776 133.137 395.713 132 397.498 132C399.722 132 399.745 132.141 399.477 144C399.328 150.6 399.38 156 399.592 156C400.995 156 405.884 152.643 408.568 149.835C411.669 146.593 416.85 136.829 416.869 134.191C416.875 133.472 418.201 131.222 419.817 129.191C424.252 123.618 427.434 116.47 429.886 106.57C432.298 96.835 432.175 90.627 429.489 86.527C428.587 85.151 424.509 81.511 420.426 78.438C413.224 73.017 407.107 66.439 408.227 65.319C408.53 65.016 413.786 67.56 419.908 70.971C426.03 74.383 431.281 76.931 431.579 76.634C431.876 76.336 431.825 74.519 431.464 72.594C429.797 63.717 405.263 48.768 380.379 41.468C373.669 39.5 367.69 38.612 356.879 37.976C339.624 36.963 338.389 36.706 314.069 29.085C288.765 21.156 285.525 20.593 269.052 21.275C257.605 21.749 253.101 22.447 241.379 25.562C212.504 33.235 212.192 33.282 189.379 33.366C169.439 33.439 167.618 33.282 153.28 30.255C144.975 28.502 130.67 24.802 121.49 22.034C112.31 19.265 104.155 17 103.367 17C102.485 17 101.288 19.21 100.251 22.75ZM269.879 38C268.706 38.758 268.965 38.973 271.07 38.985C274.154 39.002 275.517 40.526 274.04 42.306C272.983 43.58 272.46 46.934 272.723 50.75C272.859 52.708 273.434 53 277.151 53C279.5 53 284.446 53.838 288.142 54.863C295.588 56.928 296.406 56.615 297.47 51.296C298.036 48.464 292.434 46.569 286 42.306C276.904 36.279 273.788 35.474 269.879 38ZM301.379 55L298.505 58L302.442 57.978C304.607 57.966 308.404 57.004 310.879 55.84C315.201 53.807 315.28 53.693 312.879 52.961C307.543 51.335 304.347 51.902 301.379 55Z" stroke="#C9A12A" stroke-width="34" mask="url(#path-1-outside-1_10_3)"/>
</svg>
